<?xml version="1.0" encoding="UTF-8"?>
<svg xmlns="http://www.w3.org/2000/svg" width="198" height="27" viewBox="0 0 198 27" fill="none">
  <g clip-path="url(#clip0_2669_2465)">
    <path d="M48.6154 0H41.5686V26.9929H48.6154V0Z" fill="#0B0B0B"></path>
    <path d="M162.068 0H155.021V26.9929H162.068V0Z" fill="#0B0B0B"></path>
    <path d="M25.6012 0C25.0022 0 24.4314 0.241515 24.0086 0.667718L19.7312 4.97238V5.68272L34.5294 5.66851L34.5153 7.98367e-07L25.6012 0Z" fill="#0B0B0B"></path>
    <path d="M74.6466 0.667718C74.224 0.241515 73.6528 0 73.0539 0H56.3743V26.9929H77.2819C77.8811 26.9929 78.4515 26.7514 78.8748 26.3252L82.6516 22.5178C82.9685 22.1981 83.1451 21.7648 83.1451 21.3102V9.93768C83.1451 9.48302 82.9685 9.04973 82.6516 8.73008L74.6466 0.667718ZM76.0984 20.5998L75.3935 21.3102H63.414L63.3646 5.71824L75.3935 5.68272L76.0984 6.39306V20.5998Z" fill="#0B0B0B"></path>
    <path d="M109.175 0.667718C108.753 0.241515 108.182 0 107.583 0H97.95H95.1736H90.9033V26.9929H97.95V21.3315L110.635 21.3173V26.9929H117.681V10.1792C117.681 9.57537 117.441 8.99998 117.019 8.57383L109.175 0.667718ZM104.426 15.6488C103.877 15.6488 103.355 15.8477 102.939 16.2099L97.936 20.6212V5.68272H109.916L110.62 6.39306V15.6488H104.426Z" fill="#0B0B0B"></path>
    <path d="M197.514 15.8406L193.032 11.3228C192.609 10.8966 192.038 10.6551 191.439 10.6551H177.578L176.874 9.94476V6.39306V5.68272H196.605V0H183.357C182.807 0 182.285 0.198894 181.869 0.561167L176.866 4.97238H169.82V6.40016C169.82 6.85482 169.996 7.28811 170.313 7.60775L178.318 15.6914C178.741 16.1176 179.319 16.3591 179.918 16.3591L190.256 16.3449L190.96 17.0553V20.607L190.256 21.3173H169.82V27H191.433C192.031 27 192.602 26.7585 193.025 26.3323L197.506 21.8146C197.824 21.4949 198 21.0616 198 20.607V17.0481C198.007 16.5935 197.831 16.1602 197.514 15.8406Z" fill="#0B0B0B"></path>
    <path d="M11.9372 0.667718C11.5144 0.241515 10.9436 0 10.3446 0H0V5.71824H12.6842L13.3888 6.39306V26.9929H20.4356V10.1792C20.4356 9.57537 20.196 8.99998 19.7732 8.57383L11.9372 0.667718Z" fill="#0B0B0B"></path>
    <path d="M132.472 20.5998V0H125.426V16.8138C125.426 17.4175 125.665 17.9929 126.088 18.4191L133.931 26.3252C134.353 26.7514 134.924 26.9929 135.524 26.9929H147.932L147.975 21.3102H133.176L132.472 20.5998Z" fill="#0B0B0B"></path>
  </g>
  <defs>
    <clipPath id="clip0_2669_2465">
      <rect width="198" height="27" fill="white"></rect>
    </clipPath>
  </defs>
</svg>
